<svg width="128" height="61" viewBox="0 0 128 61" fill="none" xmlns="http://www.w3.org/2000/svg">
<path d="M46.3423 1.12742L43.7001 43.2872L30.6042 43.8616L30.7191 21.6329L24.8029 39.5537H19.7483L15.2107 23.5284L15.1533 42.1384L1.88499 42.5405L2.45937 2.85057L17.221 2.27619L23.0797 21.2883L30.8914 1.12742H46.3423ZM81.0512 11.0643C81.0512 12.4811 80.9841 14.0415 80.8501 15.7455C80.7161 17.4495 80.4959 19.2109 80.1896 21.0298C79.8832 22.8487 79.4812 24.6963 78.9834 26.5726C78.5047 28.4298 77.9016 30.22 77.1741 31.9431C76.4465 33.6663 75.5945 35.2841 74.6181 36.7967C73.6608 38.2901 72.5503 39.6016 71.2866 40.7312C70.0421 41.8417 68.6445 42.7128 67.0936 43.3446C65.5428 43.9956 63.8196 44.3211 61.9242 44.3211C59.7032 44.3211 57.7695 43.9573 56.1229 43.2298C54.4955 42.5213 53.0978 41.564 51.9299 40.3578C50.762 39.1325 49.8047 37.7157 49.058 36.1074C48.3113 34.48 47.7273 32.7664 47.3061 30.9667C46.8849 29.1478 46.5881 27.3002 46.4158 25.4239C46.2626 23.5284 46.1861 21.7095 46.1861 19.9672C46.1861 17.2868 46.3201 14.6159 46.5881 11.9546C46.8562 9.2741 47.2391 6.60321 47.7369 3.9419L61.1775 4.45885C60.6605 7.46479 60.2106 10.4899 59.8277 13.5341C59.4639 16.5592 59.282 19.6034 59.282 22.6668C59.282 22.9923 59.2916 23.4805 59.3107 24.1315C59.349 24.7633 59.4065 25.4813 59.483 26.2854C59.5596 27.0704 59.6649 27.8841 59.799 28.7266C59.9521 29.5498 60.1532 30.3061 60.4021 30.9954C60.651 31.6846 60.9477 32.2494 61.2924 32.6898C61.6561 33.1302 62.0773 33.3504 62.556 33.3504C63.1112 33.3504 63.609 33.0919 64.0494 32.5749C64.4898 32.0388 64.8727 31.3304 65.1982 30.4497C65.5428 29.569 65.8396 28.5542 66.0885 27.4055C66.3374 26.2567 66.548 25.0601 66.7203 23.8156C66.8926 22.5711 67.0266 21.3266 67.1224 20.0821C67.2372 18.8376 67.3234 17.6792 67.3808 16.6071C67.4574 15.5349 67.5053 14.5871 67.5244 13.7639C67.5436 12.9406 67.5531 12.3279 67.5531 11.9258C67.5531 10.4324 67.5244 8.94861 67.467 7.47436C67.4287 5.98096 67.3617 4.49714 67.2659 3.02289H80.7065C80.9363 5.66505 81.0512 8.34551 81.0512 11.0643ZM118 1.87412L104.157 21.0011L115.817 41.3343L102.492 43.6893L93.7611 31.2826L93.3016 44.2636L81.3544 44.7232L82.2734 0.725352L95.6566 1.47205L94.6227 14.4531L103.526 0.725352L118 1.87412ZM127.063 37.0838C127.063 37.9263 126.9 38.7113 126.575 39.4388C126.249 40.1664 125.809 40.8078 125.253 41.363C124.717 41.8991 124.086 42.3299 123.358 42.6554C122.63 42.9617 121.855 43.1149 121.032 43.1149C120.189 43.1149 119.404 42.9617 118.677 42.6554C117.949 42.3299 117.308 41.8991 116.753 41.363C116.216 40.8078 115.786 40.1664 115.46 39.4388C115.154 38.7113 115.001 37.9263 115.001 37.0838C115.001 36.2606 115.154 35.4756 115.46 34.7289C115.786 33.9822 116.216 33.3408 116.753 32.8047C117.308 32.2494 117.949 31.8091 118.677 31.4836C119.404 31.1581 120.189 30.9954 121.032 30.9954C121.855 30.9954 122.63 31.1581 123.358 31.4836C124.086 31.8091 124.717 32.2494 125.253 32.8047C125.809 33.3408 126.249 33.9822 126.575 34.7289C126.9 35.4756 127.063 36.2606 127.063 37.0838Z" fill="#3D7CC1"/>
</svg>
