<svg width="200" height="199" viewBox="0 0 200 199" fill="none" xmlns="http://www.w3.org/2000/svg">
<path d="M166.01 38.3196C165.872 37.3149 164.992 36.7591 164.267 36.6984C163.541 36.6378 149.375 36.4225 149.375 36.4225C149.375 36.4225 137.528 24.9166 136.358 23.7456C135.188 22.5745 132.901 22.9297 132.014 23.1909C132.001 23.1948 129.791 23.8793 126.061 25.034C125.439 23.0121 124.521 20.5289 123.212 18.0336C118.994 9.98657 112.818 5.72711 105.354 5.71623C105.345 5.71623 105.337 5.71623 105.328 5.71623C104.811 5.71623 104.295 5.76481 103.779 5.81184C103.56 5.54755 103.338 5.28558 103.104 5.03567C99.8546 1.55744 95.6815 -0.137169 90.6867 0.00936027C81.0445 0.285706 71.447 7.24798 63.6623 19.6124C58.1824 28.3148 54.0194 39.247 52.8355 47.708C41.7669 51.1356 34.0226 53.5341 33.8551 53.5866C28.2679 55.3399 28.0922 55.5156 27.3596 60.7794C26.8049 64.7644 12.1874 177.813 12.1874 177.813L134.71 199L187.812 185.801C187.812 185.801 166.147 39.3243 166.01 38.3196ZM59.6994 45.5819C63.0124 30.091 75.9925 6.85115 90.8721 6.42322C93.1357 6.37581 95.0421 6.87253 96.6703 7.9441C94.0662 9.29629 91.5472 11.2396 89.1844 13.7738C83.0605 20.3431 78.3696 30.5434 76.499 40.3795C70.6611 42.1873 64.9519 43.9553 59.6994 45.5819ZM104.006 31.8626C97.5871 33.8499 90.5798 36.0198 83.5503 38.1964C85.5294 30.6258 89.2754 23.0883 93.8788 18.1502C95.5913 16.3134 97.9871 14.2635 100.824 13.0932C103.492 18.6539 104.07 26.537 104.006 31.8626ZM110.415 29.878C110.344 24.9959 109.761 18.2054 107.487 12.3353C114.802 13.7213 118.404 21.9985 119.924 26.9338C117.105 27.8064 113.893 28.8006 110.415 29.878Z" fill="#95BF47"/>
<path d="M164.267 36.6984C163.541 36.6378 149.375 36.4224 149.375 36.4224C149.375 36.4224 137.528 24.9166 136.358 23.7455C135.921 23.3086 135.33 23.0852 134.713 22.9888L134.716 198.999L187.812 185.801C187.812 185.801 166.147 39.3243 166.01 38.3195C165.872 37.3148 164.992 36.759 164.267 36.6984Z" fill="#5E8E3E"/>
<path d="M105.283 64.0019L99.115 87.0738C99.115 87.0738 92.2355 83.9411 84.0792 84.4561C72.1202 85.2113 71.9931 92.755 72.1124 94.6455C72.7638 104.964 99.9095 107.219 101.435 131.387C102.636 150.402 91.3497 163.409 75.0873 164.435C55.5725 165.668 44.8269 154.152 44.8269 154.152L48.962 136.559C48.962 136.559 59.776 144.718 68.4325 144.172C74.0869 143.814 76.1072 139.216 75.902 135.963C75.0519 122.503 52.9474 123.296 51.5509 101.179C50.3756 82.5648 62.5985 63.7076 89.5692 62.0045C99.9611 61.3488 105.283 64.0019 105.283 64.0019Z" fill="white"/>
</svg>
